<?xml version="1.0" encoding="UTF-8"?>
<svg width="80px" height="25px" viewBox="0 0 80 25" version="1.1" xmlns="http://www.w3.org/2000/svg" xmlns:xlink="http://www.w3.org/1999/xlink">
    <!-- Generator: Sketch 50 (54983) - http://www.bohemiancoding.com/sketch -->
    <title>Logo</title>
    <desc>Created with Sketch.</desc>
    <defs></defs>
    <g id="simbolos" stroke="none" stroke-width="1" fill="none" fill-rule="evenodd">
        <g id="Parts-/-Toolbar-XL" transform="translate(0.000000, -13.000000)" fill="#F24021">
            <g id="Toolbar-XL" transform="translate(0.000000, -23.000000)">
                <g id="Logo" transform="translate(0.000000, 36.000000)">
                    <g>
                        <path d="M69.310668,0 C69.2640739,0 69.1790749,0.0169976781 69.055671,0.0506839856 L66.1809538,1.64908382 C65.9491127,1.7847562 65.8333333,2.00448982 65.8333333,2.30890278 C65.8333333,2.56263176 65.9894943,3.00982522 66.1518678,3.22924979 C66.3142413,3.4496015 66.5034418,3.55931379 66.7197515,3.55931379 C66.8126574,3.55931379 66.9052809,3.5339718 66.9981868,3.48328781 L69.8034363,1.93526291 C70.0502441,1.81720631 70.1744951,1.58881933 70.1744951,1.25041101 C70.1744951,0.996682033 70.0214404,0.549797624 69.8669738,0.329754955 C69.7122248,0.110330383 69.5269778,0 69.310668,0" id="Fill-1-Copy"></path>
                        <path d="M68.2531265,5.83333333 L67.5175039,5.83333333 C66.9654339,5.83333333 66.6666667,6.18595789 66.6666667,6.78983904 L66.6666667,19.4728883 C66.6666667,20.0767695 66.9654339,20.404052 67.5175039,20.404052 L68.2531265,20.404052 C68.804914,20.404052 69.1039637,20.0767695 69.1039637,19.4728883 L69.1039637,6.78983904 C69.1039637,6.18595789 68.804914,5.83333333 68.2531265,5.83333333" id="Fill-4-Copy"></path>
                        <path d="M57.9636485,17.6272059 C57.1574287,18.0193887 56.319299,18.6884791 54.9338999,18.6884791 C53.4637843,18.6884791 52.6507871,18.1513525 51.738954,17.621334 C51.3275136,17.3824393 50.881057,17.6142258 50.8536653,18.2400494 C50.8420874,18.5107761 50.8333333,18.6424308 50.8333333,18.8436215 C50.8333333,19.2453848 50.8691967,19.5139481 51.4111007,19.9150933 C52.0659601,20.3999907 53.2381557,21.0149976 54.8534191,21.0149976 C55.9349679,21.0149976 57.5205806,20.4828158 58.2824654,19.8977866 C58.831429,19.4759352 58.9991679,19.4447212 59.043503,18.7907742 C59.0604463,18.5410629 59.0339017,18.2530295 59.0118754,18.0107353 C58.967258,17.5178026 58.5047053,17.3638964 57.9636485,17.6272059" id="Fill-6-Copy"></path>
                        <path d="M5.03103742,18.2174274 C4.15817389,18.2174274 3.79050378,17.7900131 3.79050378,16.8094016 L3.79050378,8.33652261 L5.35267817,8.33652261 C5.90418334,8.33652261 6.20266822,7.98451615 6.20266822,7.38125311 L6.20266822,6.97887171 C6.20266822,6.37560866 5.90418334,6.02329315 5.35267817,6.02329315 L3.79050378,6.02329315 L3.79050378,4.2635699 C3.79050378,3.6599978 3.46886303,3.33333333 2.91764025,3.33333333 C2.32010572,3.33333333 1.99874735,3.55955698 1.86065927,4.11244509 L1.44752457,6.02329315 L0.872863531,6.02329315 C0.298484876,6.02329315 0,6.37560866 0,6.97887171 L0,7.38125311 C0,7.98451615 0.298484876,8.33652261 0.872863531,8.33652261 L1.33230998,8.33652261 L1.33230998,16.9101514 C1.33230998,19.1726969 2.27407636,20.6814726 4.57159097,20.6814726 C5.74322177,20.6814726 6.38650327,20.3291571 6.38650327,19.6004203 L6.38650327,18.9715062 C6.38650327,18.1420195 5.83528049,18.2174274 5.03103742,18.2174274" id="Fill-8-Copy"></path>
                        <path d="M12.0487175,5.83333333 C10.6932516,5.83333333 9.93532031,6.98979354 9.82010572,7.84462222 L9.82010572,6.86431977 C9.82010572,6.26074767 9.49874735,5.90874121 8.94724219,5.90874121 L8.34970766,5.90874121 C7.79848488,5.90874121 7.5,6.26074767 7.5,6.86431977 L7.5,19.5359343 C7.5,20.1395064 7.79848488,20.4661708 8.34970766,20.4661708 L9.08504788,20.4661708 C9.63655305,20.4661708 9.93532031,20.1395064 9.93532031,19.5359343 L9.93532031,10.4344503 C9.93532031,9.78050323 10.0959995,9.35308889 10.348455,9.07679936 C10.6472223,8.74982584 11.1755716,8.62404303 11.7499502,8.59901008 C12.3932317,8.54863514 12.6917166,8.44819432 12.6917166,7.41720788 L12.6917166,6.48697132 C12.6917166,6.05955698 12.5310374,5.83333333 12.0487175,5.83333333" id="Fill-10-Copy"></path>
                        <path d="M19.9330443,16.8960403 C19.9330443,17.8763428 19.4275685,18.6056977 18.163879,18.6056977 C17.0843069,18.6056977 16.6017046,18.0775335 16.6017046,17.071889 L16.6017046,16.5940998 C16.6017046,15.6638632 16.9465012,15.2114159 17.9574528,14.8594094 L19.9330443,14.1300545 L19.9330443,16.8960403 Z M18.3251229,5.83333333 C15.7059676,5.83333333 14.2815989,7.24135918 14.2815989,9.83087817 L14.2815989,9.93131899 C14.2815989,10.4845162 14.5803661,10.7861477 15.1315889,10.7861477 L15.8437733,10.7861477 C16.3952784,10.7861477 16.7166368,10.4845162 16.7166368,9.93131899 L16.7166368,9.80584523 C16.7166368,8.74982584 17.1992391,8.22197068 18.3251229,8.22197068 C19.4735979,8.22197068 19.9330443,8.74982584 19.9330443,9.83087817 L19.9330443,11.8171341 L16.8547249,12.9989363 C15.0855596,13.6776072 14.1666667,14.7085937 14.1666667,16.5437248 L14.1666667,17.2981127 C14.1666667,19.5359343 15.3382975,20.7928353 17.497724,20.7928353 C19.1748306,20.7928353 19.7952386,19.7871908 19.9790737,19.2339937 L19.9790737,19.7618489 C19.9790737,20.3153551 20.3007144,20.6420195 20.8519372,20.6420195 L21.5180922,20.6420195 C22.0695974,20.6420195 22.3680822,20.3153551 22.3680822,19.711783 L22.3680822,9.85622016 C22.3680822,7.24135918 20.9437135,5.83333333 18.3251229,5.83333333 L18.3251229,5.83333333 Z" id="Fill-12-Copy"></path>
                        <path d="M35.4757743,5.83333333 C33.8678529,5.83333333 33.0178629,6.86401072 32.6959398,7.64343152 C32.2596492,6.51200426 31.3176004,5.83333333 29.9395435,5.83333333 C28.3770867,5.83333333 27.573126,6.81363579 27.3203881,7.41720788 L27.3203881,6.88935272 C27.3203881,6.28578062 26.9987474,5.93377416 26.4472422,5.93377416 L25.84999,5.93377416 C25.2987673,5.93377416 25,6.28578062 25,6.88935272 L25,19.5609672 C25,20.1645393 25.2987673,20.4912038 25.84999,20.4912038 L26.5853303,20.4912038 C27.136553,20.4912038 27.4350379,20.1645393 27.4350379,19.5609672 L27.4350379,9.85591111 C27.4350379,8.77485879 28.1475047,8.17128669 29.0435241,8.17128669 C30.0313198,8.17128669 30.5136397,8.77485879 30.5136397,9.88125311 L30.5136397,19.5609672 C30.5136397,20.1645393 30.8352805,20.4912038 31.3867857,20.4912038 L32.1218435,20.4912038 C32.6730663,20.4912038 32.9718335,20.1645393 32.9718335,19.5609672 L32.9718335,9.85591111 C32.9718335,8.77485879 33.7068914,8.17128669 34.5797549,8.17128669 C35.567833,8.17128669 36.050153,8.77485879 36.050153,9.88125311 L36.050153,19.5609672 C36.050153,20.1645393 36.3717937,20.4912038 36.9232989,20.4912038 L37.6583567,20.4912038 C38.2098619,20.4912038 38.5083468,20.1645393 38.5083468,19.5609672 L38.5083468,9.32805595 C38.5083468,7.24135918 37.4516482,5.83333333 35.4757743,5.83333333" id="Fill-14-Copy"></path>
                        <path d="M46.4390318,16.5440339 C46.4390318,17.6501191 45.8646531,18.2033163 44.8997309,18.2033163 C44.0037115,18.2033163 43.2686536,17.6501191 43.2686536,16.5940998 L43.2686536,9.80584523 C43.2686536,8.74982584 44.0037115,8.19662868 44.8997309,8.19662868 C45.8646531,8.19662868 46.4390318,8.74982584 46.4390318,9.85591111 L46.4390318,16.5440339 Z M45.7036916,5.83333333 C44.3024787,5.83333333 43.4982357,6.66312907 43.2686536,7.1406093 L43.2686536,6.68816202 C43.2686536,6.21037274 42.9470129,5.93377416 42.4186636,5.93377416 L41.6833234,5.93377416 C41.1321006,5.93377416 40.8333333,6.28608967 40.8333333,6.88935272 L40.8333333,23.7346698 C40.8333333,24.3379328 41.1321006,24.6649064 41.6833234,24.6649064 L42.4186636,24.6649064 C42.9701688,24.6649064 43.2686536,24.3379328 43.2686536,23.7346698 L43.2686536,19.6110331 C43.4753622,19.8879407 44.1415172,20.5165458 45.5198565,20.5165458 C47.4957304,20.5165458 48.8972256,19.1585858 48.8972256,16.6948496 L48.8972256,9.47887171 C48.8972256,7.24135918 47.7484683,5.83333333 45.7036916,5.83333333 L45.7036916,5.83333333 Z" id="Fill-16-Copy"></path>
                        <path d="M53.2454978,6.6483606 C53.2454978,5.56699922 53.7970029,4.91367029 54.8994485,4.91367029 C55.9795854,4.91367029 56.5308081,5.56699922 56.5308081,6.6483606 L56.5308081,12.3555628 C56.5308081,13.4619571 55.9795854,14.0905622 54.8994485,14.0905622 C53.7970029,14.0905622 53.2454978,13.4619571 53.2454978,12.3555628 L53.2454978,6.6483606 Z M54.8994485,16.5042324 C57.449701,16.5042324 58.9658461,14.9704238 58.9658461,12.3555628 L58.9658461,6.6483606 C58.9658461,4.0588416 57.449701,2.5 54.8994485,2.5 C52.3266049,2.5 50.8333333,4.0588416 50.8333333,6.6483606 L50.8333333,12.3555628 C50.8333333,14.9704238 52.3266049,16.5042324 54.8994485,16.5042324 L54.8994485,16.5042324 Z" id="Fill-19-Copy"></path>
                        <path d="M63.2517145,2.5 L62.5163743,2.5 C61.9651515,2.5 61.6666667,2.85200646 61.6666667,3.45526951 L61.6666667,19.9989551 C61.6666667,20.6025272 61.9651515,20.9291916 62.5163743,20.9291916 L63.2517145,20.9291916 C63.8029373,20.9291916 64.1017046,20.6025272 64.1017046,19.9989551 L64.1017046,3.45526951 C64.1017046,2.85200646 63.8029373,2.5 63.2517145,2.5" id="Fill-21-Copy"></path>
                        <path d="M76.6519571,5.83333333 C75.0669092,5.83333333 74.2397927,6.81363579 73.9867724,7.41720788 L73.9867724,6.88935272 C73.9867724,6.28578062 73.665414,5.93377416 73.1141912,5.93377416 L72.5166567,5.93377416 C71.9654339,5.93377416 71.6666667,6.28578062 71.6666667,6.88935272 L71.6666667,19.5609672 C71.6666667,20.1645393 71.9654339,20.4912038 72.5166567,20.4912038 L73.2519969,20.4912038 C73.8032197,20.4912038 74.101987,20.1645393 74.101987,19.5609672 L74.101987,9.85591111 C74.101987,8.77485879 74.8599183,8.17128669 75.7330642,8.17128669 C76.72086,8.17128669 77.2720827,8.77485879 77.2720827,9.88125311 L77.2720827,19.5609672 C77.2720827,20.1645393 77.57085,20.4912038 78.1223552,20.4912038 L78.857413,20.4912038 C79.4089182,20.4912038 79.7302765,20.1645393 79.7302765,19.5609672 L79.7302765,9.32805595 C79.7302765,7.24135918 78.6046751,5.83333333 76.6519571,5.83333333" id="Fill-23-Copy"></path>
                    </g>
                </g>
            </g>
        </g>
    </g>
</svg>